
<svg version="1.1" id="Capa_1" xmlns="http://www.w3.org/2000/svg" xmlns:xlink="http://www.w3.org/1999/xlink" x="0px" y="0px"
	 viewBox="0 0 512 512" style="enable-background:new 0 0 512 512;" xml:space="preserve">
<g>
	<path style="fill:#D5011D;" d="M442,172.5v-30h-78.665l-23.309,137.069l-26.897-136.534V142.5h-30.682l2.864,14.539
		c-11.163-8.204-24.669-13.388-39.311-14.359l-10,15.048l10,15.048c22.468,2.496,40,21.601,40,44.724s-17.532,42.229-40,44.724
		l-10,15.055l10,15.055c4.37-0.289,8.63-0.974,12.766-1.983l21.01,79.147h31.039l-24.501-92.297
		c7.405-5.634,13.73-12.608,18.618-20.563L327.167,369.5h27.998L377,241.095V369.5h65v-30h-35V271h35v-30h-35v-68.5H442z"/>
	<polygon style="fill:#D5011D;" points="482,339.5 482,142.5 452,142.5 452,369.5 512,369.5 512,339.5 	"/>
</g>
<path style="fill:#FF0021;" d="M246,142.68c-1.654-0.11-3.319-0.18-5-0.18h-25v156.019L181.55,142.5h-27.099L125,275.876V142.5
	H94.951L62.153,291.033L30.109,142.5H0v227h30v-85.248L48.391,369.5h27.158L95,281.412V369.5h40.049l8.832-40h48.237l8.832,40H246
	V142.68z M150.506,299.5L168,220.274l17.494,79.227h-34.988V299.5z"/>

</svg>
