<?xml version="1.0" encoding="utf-8"?>
<!-- Generator: Adobe Illustrator 21.0.0, SVG Export Plug-In . SVG Version: 6.00 Build 0)  -->
<svg version="1.1" id="Layer_1" xmlns="http://www.w3.org/2000/svg" xmlns:xlink="http://www.w3.org/1999/xlink" x="0px" y="0px"
	 viewBox="0 0 1000 402.5" style="enable-background:new 0 0 1000 402.5;" xml:space="preserve">
<style type="text/css">
	.st0{fill:#FFFFFF;}
</style>
<g>
	<g>
		<path class="st0" d="M846.3,93.8V32.2H674.8L646.6,238L618.7,32.2h-61.8l6.9,54.9c-7.1-14.1-32.4-54.9-88.1-54.9
			c-0.4,0-61.9,0-61.9,0l-0.2,300l-45.1-300l-81,0L240.9,343l0-310.8h-77.5l-27.9,174.6L108.3,32.2H30.8v337.9h61V207.2l27.8,162.9
			h32.4l27.4-162.9v162.9h117.7l7.1-52h47.4l7.1,52l115.5,0.1h0.1v-0.1h0.1h0.1V260.4l14.2-2.1L518,370.2h0.1h59.6h0.1l0-0.1h0.1
			h0.1L539.4,239c19.5-14.4,41.5-51,35.7-86.1v0c0.1,0.5,36.3,217.4,36.3,217.4l71.1-0.2L731,63.8v306.3h115.2v-60.8h-54.7v-77.5
			h54.7v-61.7h-54.7V93.8H846.3z M311.5,264.5l16.8-144.5l17.4,144.5H311.5z M488.9,197.8c-4.7,2.3-9.6,3.4-14.4,3.4V92.5
			c0.1,0,0.2,0,0.3,0c4.8,0,40.4,1.4,40.4,53.8C515.2,173.7,503.1,190.9,488.9,197.8 M969.2,309.3V370H856.8V32.1h60.5v277.1
			L969.2,309.3L969.2,309.3z"/>
	</g>
</g>
</svg>
